<?xml version="1.0" encoding="utf-8"?>
<!-- Generator: Adobe Illustrator 16.0.0, SVG Export Plug-In . SVG Version: 6.00 Build 0)  -->
<!DOCTYPE svg PUBLIC "-//W3C//DTD SVG 1.1//EN" "http://www.w3.org/Graphics/SVG/1.1/DTD/svg11.dtd">
<svg version="1.1" id="Layer_1" xmlns="http://www.w3.org/2000/svg" xmlns:xlink="http://www.w3.org/1999/xlink" x="0px" y="0px"
	 width="512px" height="512px" viewBox="0 0 512 512" enable-background="new 0 0 512 512" xml:space="preserve">
<path fill="#292929" d="M508.871,394.504L469.5,332.508c-2.875-4.527-7.352-7.668-12.605-8.84
	c-5.25-1.172-10.637-0.234-15.164,2.641l-11.734,7.449c-6.949,4.414-10.266,12.414-9.086,20.078l-7.363,3.965
	c-1.758,0.945-3.395,1.844-4.949,2.711V218c0-14.336-11.664-26-26-26H216.004c-5.523,0-10,4.477-10,10v68
	c0,3.465,1.793,6.684,4.742,8.504c2.949,1.824,6.629,1.988,9.73,0.438l15.527-7.762l15.527,7.762
	c1.406,0.707,2.938,1.059,4.473,1.059c1.531,0,3.063-0.352,4.469-1.059L276,271.18l15.531,7.762
	c3.098,1.551,6.777,1.387,9.727-0.438c2.949-1.82,4.742-5.039,4.742-8.504v-58h76.598c3.254,0,6,2.746,6,6v156.75
	c-4.41,4.621-7.934,10.113-12.414,18.223c-1.977,3.578-3.516,6.535-4.75,8.914c-4.996,9.602-4.996,9.602-18.691,16.977
	l-19.645,10.575c-5.656,3.047-9.793,8.125-11.645,14.305c-0.691,2.301-1.031,4.645-1.031,6.977h-49.246
	c-5.516,0-10.797,1.746-15.16,4.938c-4.227-3.098-9.488-4.938-15.188-4.938h-49.242c-0.004-2.332-0.344-4.676-1.035-6.977
	c-1.852-6.18-5.988-11.258-11.645-14.305l-19.645-10.575c-13.695-7.375-13.695-7.375-18.691-16.977
	c-1.234-2.379-2.773-5.336-4.75-8.914c-4.48-8.109-8.004-13.605-12.414-18.223V218c0-3.254,2.746-6,6-6h17.633
	c5.523,0,10-4.477,10-10s-4.477-10-10-10h-17.633c-14.336,0-26,11.664-26,26v142.511c-1.555-0.867-3.195-1.766-4.949-2.711
	l-7.363-3.965c0.375-2.453,0.313-4.977-0.246-7.473c-1.172-5.254-4.313-9.73-8.84-12.605l-11.73-7.449
	c-4.527-2.875-9.914-3.813-15.168-2.641s-9.73,4.313-12.605,8.84L3.133,394.504c-2.875,4.527-3.813,9.914-2.641,15.168
	s4.313,9.727,8.84,12.603l11.734,7.453c3.336,2.121,7.063,3.129,10.75,3.129c2.824,0,5.625-0.598,8.203-1.742l35.836,52.293
	c0.238,0.348,0.5,0.68,0.777,0.992c20.066,22.566,28.793,27.586,57.332,27.582c3.309,0,6.887-0.066,10.777-0.184
	c0.297-0.008,0.594-0.031,0.887-0.063l97.258-11.613c4.984-0.594,9.457-2.434,13.113-5.172c3.656,2.738,8.129,4.578,13.113,5.172
	l97.258,11.613c0.293,0.031,0.59,0.055,0.887,0.063c3.895,0.117,7.469,0.184,10.777,0.184c28.535,0,37.266-5.02,57.332-27.582
	c0.277-0.313,0.539-0.645,0.777-0.992l35.832-52.285c1.207,0.531,2.477,0.949,3.793,1.246c1.477,0.328,2.961,0.492,4.438,0.492
	c3.773,0,7.477-1.066,10.73-3.133l11.73-7.453C512.039,416.328,514.82,403.871,508.871,394.504z M286,253.821l-5.527-2.766
	c-2.813-1.406-6.129-1.406-8.941,0l-15.527,7.765l-15.531-7.765c-2.813-1.406-6.129-1.406-8.941,0l-5.527,2.766V212H286V253.821z
	 M20.055,405.391c-0.039-0.02-0.063-0.129-0.039-0.164l39.371-62c0.023-0.031,0.066-0.051,0.109-0.051
	c0.023,0,0.043,0.004,0.059,0.016l11.73,7.449c0.051,0.031,0.07,0.121,0.039,0.168l-37.938,59.738
	c-0.02,0.031-0.039,0.063-0.063,0.094l-1.371,2.164c-0.023,0.039-0.133,0.059-0.168,0.039L20.055,405.391z M240.516,480.267
	l-96.809,11.555c-31.688,0.922-34.508-0.922-51.707-20.242l-38.242-55.802l28.078-44.211l7.141,3.844
	c8.695,4.684,13.891,7.75,17.719,11.039c0.156,0.141,0.309,0.277,0.469,0.41c4.344,3.867,6.934,8.148,11.152,15.785
	c1.852,3.359,3.266,6.074,4.516,8.473c6.848,13.169,9.016,15.7,26.949,25.356l19.645,10.578c1.285,0.691,1.785,1.824,1.973,2.441
	c0.184,0.613,0.391,1.836-0.305,3.121c-0.367,0.691-0.738,1.273-1.105,1.785c-0.082,0.102-0.156,0.211-0.238,0.316
	c-2.734,3.563-5.27,2.598-6.723,2.035c-9.656-3.723-17.332-6.129-24.758-8.461c-7.715-2.418-15.004-4.707-24.137-8.344
	c-5.129-2.043-10.945,0.457-12.988,5.586c-2.047,5.133,0.457,10.949,5.586,12.992c9.832,3.918,17.824,6.426,25.555,8.848
	c7.121,2.234,14.488,4.547,23.547,8.039c3.254,1.254,6.5,1.863,9.656,1.863c6.098,0,11.832-2.285,16.555-6.555h58.785
	c2.5,0,5.172,1.727,5.176,4.297v0.004v0.008C246,478.192,243.246,479.938,240.516,480.267z M420.004,471.583
	c-17.199,19.32-20.02,21.16-51.707,20.242l-96.809-11.559c-2.73-0.328-5.484-2.074-5.484-5.242v-0.004c0-0.004,0-0.004,0-0.008
	c0-1.332,0.719-2.273,1.32-2.828c1.008-0.93,2.414-1.465,3.852-1.465h58.785c4.723,4.27,10.461,6.555,16.555,6.555
	c3.156,0,6.406-0.609,9.656-1.863c9.059-3.492,16.426-5.805,23.551-8.039c7.73-2.426,15.723-4.934,25.551-8.848
	c5.133-2.043,7.633-7.859,5.59-12.992c-2.043-5.129-7.859-7.633-12.992-5.586c-9.129,3.637-16.418,5.922-24.133,8.344
	c-7.426,2.328-15.105,4.738-24.762,8.461c-1.453,0.559-3.988,1.527-6.73-2.047c-0.074-0.098-0.145-0.199-0.223-0.297
	c-0.367-0.512-0.742-1.102-1.113-1.793c-0.691-1.285-0.488-2.508-0.301-3.121c0.184-0.617,0.684-1.75,1.969-2.441l19.645-10.578
	c17.938-9.656,20.102-12.188,26.953-25.356c1.246-2.398,2.66-5.113,4.516-8.473c4.219-7.637,6.809-11.918,11.152-15.789
	c0.156-0.125,0.305-0.262,0.453-0.395c3.828-3.297,9.027-6.363,17.734-11.051l7.137-3.844l28.078,44.211L420.004,471.583z
	 M491.949,405.391l-11.73,7.453c-0.051,0.031-0.137,0.012-0.168-0.039l-39.371-61.996c-0.023-0.035,0-0.145,0.039-0.168l11.73-7.449
	c0.016-0.012,0.035-0.016,0.059-0.016c0.043,0,0.086,0.02,0.109,0.051l39.371,62C492.02,405.273,491.996,405.363,491.949,405.391z"
	/>
<path fill="#292929" d="M175.77,212h0.27c5.52,0,10-4.477,10-10s-4.48-10-10-10h-0.27c-5.523,0-10,4.477-10,10
	S170.246,212,175.77,212z"/>
<path fill="#292929" d="M249.969,386.523c-5.523,0-10,4.477-10,10s4.477,10,10,10h41.035c5.523,0,10-4.477,10-10s-4.477-10-10-10
	H249.969z"/>
<path fill="#292929" d="M221,386.523c-5.52,0-10,4.477-10,10s4.48,10,10,10h0.238c5.523,0,10-4.477,10-10s-4.477-10-10-10H221z"/>
<path fill="#292929" d="M313.254,366.523c0-5.523-4.48-10-10-10h-94.5c-5.523,0-10,4.477-10,10c0,5.52,4.477,10,10,10h94.5
	C308.773,376.523,313.254,372.043,313.254,366.523z"/>
<path fill="#292929" d="M215.906,137.555c14.52,14.047,31.789,22.441,40.098,22.441c8.305,0,25.574-8.395,40.094-22.441
	C309.738,124.356,326,101.325,326,66.54V35.125c0-5.52-4.477-9.996-10-9.996c-7.949,0-21.262-6.863-24.023-17.617
	C290.844,3.094,286.859,0,282.293,0h-52.582c-4.563,0-8.551,3.09-9.684,7.512c-2.762,10.754-16.074,17.617-24.023,17.617
	c-5.523,0-10,4.477-10,9.996V66.54C186.004,101.325,202.266,124.356,215.906,137.555z M206.004,43.793
	C218.082,40.68,230.43,32.25,236.578,20h38.852c6.145,12.25,18.492,20.68,30.574,23.793V66.54c0,27.004-12.289,45.055-22.598,55.445
	c-11.703,11.793-23.973,17.105-27.402,17.941c-3.43-0.836-15.699-6.148-27.402-17.941c-10.309-10.391-22.598-28.441-22.598-55.445
	V43.793z"/>
<path fill="#292929" d="M248.004,106c2.559,0,5.117-0.977,7.07-2.93l32-32c3.902-3.906,3.902-10.238,0-14.145
	c-3.906-3.902-10.238-3.902-14.145,0L248,81.856l-8.93-8.93c-3.902-3.902-10.234-3.902-14.141,0c-3.906,3.906-3.906,10.238,0,14.145
	l16,16C242.883,105.024,245.441,106,248.004,106z"/>
</svg>
