<?xml version="1.0" encoding="utf-8"?>
<!-- Generator: Adobe Illustrator 16.0.0, SVG Export Plug-In . SVG Version: 6.00 Build 0)  -->
<!DOCTYPE svg PUBLIC "-//W3C//DTD SVG 1.1//EN" "http://www.w3.org/Graphics/SVG/1.1/DTD/svg11.dtd">
<svg version="1.1" id="Layer_1" xmlns="http://www.w3.org/2000/svg" xmlns:xlink="http://www.w3.org/1999/xlink" x="0px" y="0px"
	 width="114px" height="165.834px" viewBox="-12.5 0 114 165.834" enable-background="new -12.5 0 114 165.834"
	 xml:space="preserve">
<g id="surface1">
	<path fill="#FA1818" d="M23.357,133.998C8.462,84.915,39.936,66.993,39.936,66.993c-2.202,26.191,12.682,46.597,12.682,46.597
		c5.474-1.652,15.922-9.371,15.922-9.371c0,9.371-5.513,29.768-5.513,29.768s19.3-14.923,25.375-39.709
		c6.067-24.785-11.557-49.668-11.557-49.668c1.062,17.543-4.873,34.797-16.501,47.979c0.582-0.672,1.07-1.418,1.445-2.227
		c2.089-4.178,5.443-15.035,3.479-40.181C62.504,14.884,30.522,0,30.522,0c2.757,21.506-5.509,26.461-24.872,67.282
		C-13.712,108.096,23.357,133.998,23.357,133.998z"/>
</g>
<g>
	<path fill="#FA1818" d="M27.161,140.58h3.03v6.84h9.15v-6.84h3v18.57h-3v-9.03h-9.15v9.03h-3.03V140.58z"/>
	<path fill="#FA1818" d="M46.271,140.58h3.03v18.57h-3.03V140.58z"/>
	<path fill="#FA1818" d="M60.43,159.15H57.4v-15.96h-4.92v-2.61h12.84v2.61h-4.89V159.15z"/>
</g>
</svg>
