<?xml version="1.0" encoding="utf-8"?>
<!-- Generator: Adobe Illustrator 16.0.0, SVG Export Plug-In . SVG Version: 6.00 Build 0)  -->
<!DOCTYPE svg PUBLIC "-//W3C//DTD SVG 1.1//EN" "http://www.w3.org/Graphics/SVG/1.1/DTD/svg11.dtd">
<svg version="1.1" id="Capa_1" xmlns="http://www.w3.org/2000/svg" xmlns:xlink="http://www.w3.org/1999/xlink" x="0px" y="0px"
	 width="460.297px" height="460.297px" viewBox="0 0 460.297 460.297" enable-background="new 0 0 460.297 460.297"
	 xml:space="preserve">
<g>
	<g>
		<path fill="#FFFFFF" d="M230.149,120.939L65.986,256.273c0,0.191-0.048,0.473-0.144,0.855c-0.094,0.38-0.144,0.656-0.144,0.852
			v137.041c0,4.948,1.809,9.236,5.426,12.848c3.616,3.613,7.898,5.431,12.847,5.431h109.63V303.664h73.097v109.641h109.629
			c4.949,0,9.236-1.814,12.848-5.436c3.617-3.607,5.432-7.898,5.432-12.848V257.98c0-0.76-0.104-1.334-0.287-1.707L230.149,120.939z
			"/>
		<path fill="#FFFFFF" d="M457.122,225.438L394.6,173.476V56.989c0-2.663-0.855-4.854-2.574-6.567
			c-1.703-1.712-3.895-2.568-6.563-2.568h-54.816c-2.666,0-4.855,0.856-6.57,2.568c-1.711,1.714-2.566,3.905-2.566,6.567v55.673
			l-69.661-58.245c-6.084-4.949-13.318-7.423-21.694-7.423c-8.375,0-15.608,2.474-21.698,7.423L3.172,225.438
			c-1.903,1.52-2.946,3.566-3.14,6.136c-0.193,2.568,0.472,4.811,1.997,6.713l17.701,21.128c1.525,1.712,3.521,2.759,5.996,3.142
			c2.285,0.192,4.57-0.476,6.855-1.998L230.149,95.817l197.57,164.742c1.525,1.327,3.521,1.99,5.996,1.99h0.857
			c2.471-0.376,4.463-1.43,5.996-3.138l17.703-21.125c1.521-1.906,2.189-4.146,1.99-6.716
			C460.069,229.007,459.022,226.961,457.122,225.438z"/>
	</g>
</g>
</svg>
