<?xml version="1.0" encoding="utf-8"?>
<!-- Generator: Adobe Illustrator 16.0.0, SVG Export Plug-In . SVG Version: 6.00 Build 0)  -->
<!DOCTYPE svg PUBLIC "-//W3C//DTD SVG 1.1//EN" "http://www.w3.org/Graphics/SVG/1.1/DTD/svg11.dtd">
<svg version="1.1" id="Capa_1" xmlns="http://www.w3.org/2000/svg" xmlns:xlink="http://www.w3.org/1999/xlink" x="0px" y="0px"
	 width="200px" height="200px" viewBox="0 0 200 200" enable-background="new 0 0 200 200" xml:space="preserve">
<g>
	<g>
		<path fill="#FFFFFF" d="M141.903,0H58.097C26.062,0,0,26.062,0,58.097v83.807C0,173.938,26.062,200,58.097,200h83.807
			C173.938,200,200,173.938,200,141.903V58.097C200,26.062,173.938,0,141.903,0z M184.375,141.903
			c0,23.419-19.053,42.472-42.472,42.472H58.097c-23.419,0-42.472-19.053-42.472-42.472V58.097
			c0-23.419,19.053-42.472,42.472-42.472h83.807c23.419,0,42.472,19.053,42.472,42.472V141.903z"/>
	</g>
</g>
<g>
	<g>
		<path fill="#FFFFFF" d="M100,46.094c-29.724,0-53.906,24.182-53.906,53.906c0,29.725,24.182,53.906,53.906,53.906
			c29.725,0,53.906-24.182,53.906-53.906C153.906,70.276,129.725,46.094,100,46.094z M100,138.281
			c-21.108,0-38.281-17.173-38.281-38.281S78.892,61.719,100,61.719S138.281,78.892,138.281,100S121.108,138.281,100,138.281z"/>
	</g>
</g>
<g>
	<g>
		<circle fill="#FFFFFF" cx="154.688" cy="45.313" r="7.813"/>
	</g>
</g>
</svg>
