<?xml version="1.0" encoding="utf-8"?>
<!-- Generator: Adobe Illustrator 16.0.0, SVG Export Plug-In . SVG Version: 6.00 Build 0)  -->
<!DOCTYPE svg PUBLIC "-//W3C//DTD SVG 1.1//EN" "http://www.w3.org/Graphics/SVG/1.1/DTD/svg11.dtd">
<svg version="1.1" id="Capa_1" xmlns="http://www.w3.org/2000/svg" xmlns:xlink="http://www.w3.org/1999/xlink" x="0px" y="0px"
	 width="200px" height="200px" viewBox="0 0 200 200" enable-background="new 0 0 200 200" xml:space="preserve">
<g>
	<path fill="#439333" d="M198.714,108.906l-14.697-23.321c-1.164-1.849-1.557-4.082-1.095-6.216l5.834-26.942
		c0.91-4.199-1.52-8.401-5.609-9.713l-26.249-8.418c-2.08-0.668-3.816-2.125-4.835-4.057L139.215,5.851
		c-2.002-3.802-6.563-5.461-10.541-3.838l-25.52,10.426c-2.023,0.824-4.289,0.824-6.311,0L71.327,2.015
		c-3.978-1.624-8.539,0.036-10.542,3.838L47.937,30.238c-1.018,1.933-2.754,3.389-4.835,4.057l-26.249,8.418
		c-4.092,1.313-6.519,5.515-5.609,9.714l5.833,26.941c0.463,2.135,0.069,4.368-1.096,6.216L1.286,108.906
		c-2.291,3.635-1.446,8.414,1.949,11.047l21.786,16.889c1.728,1.34,2.861,3.301,3.157,5.467l3.733,27.312
		c0.58,4.257,4.301,7.377,8.591,7.21l27.545-1.066c2.183-0.086,4.311,0.691,5.933,2.157l20.412,18.522
		c3.183,2.885,8.038,2.885,11.218,0l20.415-18.522c1.618-1.469,3.748-2.243,5.933-2.157l27.543,1.066
		c4.295,0.167,8.011-2.955,8.593-7.21l3.733-27.312c0.297-2.166,1.43-4.127,3.155-5.467l21.786-16.889
		C200.162,117.32,201.005,112.541,198.714,108.906z M76.874,133.307l-24.325-16.99l9.998,23.171l-6.663,2.876L40.55,106.834
		l6.978-3.014l24.784,17.451L62.07,97.546l6.663-2.878l15.337,35.531L76.874,133.307z M91.656,126.926L76.322,91.396l26.346-11.373
		l2.592,6.012l-19.173,8.274l3.399,7.875l17.839-7.7l2.583,5.987l-17.839,7.699l4.173,9.67l19.849-8.566l2.583,5.986L91.656,126.926
		z M151.715,101.006l-18.541-23.511l4.408,29.607l-7.779,3.357l-23.813-31.867l7.341-3.172l15.891,22.094l-4.037-27.207l8.534-3.683
		l16.938,22.13l-5.259-27.171l7.222-3.118l6.705,39.256L151.715,101.006z"/>
</g>
</svg>
