<?xml version="1.0" encoding="utf-8"?>
<!-- Generator: Adobe Illustrator 16.0.0, SVG Export Plug-In . SVG Version: 6.00 Build 0)  -->
<!DOCTYPE svg PUBLIC "-//W3C//DTD SVG 1.1//EN" "http://www.w3.org/Graphics/SVG/1.1/DTD/svg11.dtd">
<svg version="1.1" id="Capa_1" xmlns="http://www.w3.org/2000/svg" xmlns:xlink="http://www.w3.org/1999/xlink" x="0px" y="0px"
	 width="200px" height="200px" viewBox="0 0 200 200" enable-background="new 0 0 200 200" xml:space="preserve">
<g>
	<path fill="#E12A2A" d="M152.894,85.735c-0.005-0.037-0.007-0.075-0.013-0.111c-0.026-0.183-0.061-0.365-0.11-0.545
		c-0.001-0.002-0.001-0.003-0.002-0.006c-0.046-0.168-0.104-0.334-0.171-0.499c-0.02-0.047-0.041-0.092-0.061-0.139
		c-0.053-0.119-0.111-0.235-0.174-0.35c-0.028-0.05-0.055-0.101-0.084-0.15c-0.017-0.026-0.029-0.054-0.046-0.081
		c-0.067-0.106-0.14-0.206-0.214-0.305c-0.015-0.019-0.025-0.038-0.04-0.056c-0.113-0.146-0.235-0.283-0.363-0.412
		c-0.024-0.025-0.05-0.047-0.075-0.071c-0.111-0.107-0.227-0.208-0.348-0.302c-0.03-0.024-0.061-0.048-0.092-0.071
		c-0.161-0.12-0.327-0.231-0.5-0.327L83.939,44.418l38.381-24.169l64.348,36.576l-27.1,17.064c-2.115,1.331-2.75,4.125-1.419,6.24
		c1.331,2.115,4.125,2.75,6.239,1.418l33.496-21.092c1.348-0.847,2.149-2.34,2.113-3.931c-0.036-1.591-0.904-3.045-2.288-3.832
		l-73.272-41.649c-1.449-0.825-3.235-0.784-4.646,0.104l-47.039,29.62c-0.009,0.006-0.02,0.012-0.029,0.018L49.218,55.586
		c-0.011,0.007-0.021,0.014-0.032,0.021L2.115,85.248c-1.346,0.847-2.149,2.34-2.112,3.931c0.036,1.591,0.904,3.045,2.288,3.832
		l73.273,41.65c0.694,0.395,1.465,0.591,2.235,0.591c0.839,0,1.676-0.233,2.411-0.696l33.496-21.092
		c2.115-1.331,2.75-4.125,1.418-6.24c-1.33-2.114-4.125-2.75-6.24-1.418L77.68,125.454L13.333,88.878l38.382-24.17l68.628,39.01
		v51.666c0,1.647,0.896,3.165,2.338,3.962c0.682,0.376,1.436,0.563,2.188,0.563c0.838,0,1.676-0.232,2.41-0.695l23.536-14.82
		c1.315-0.828,2.114-2.274,2.114-3.829V86.265c0-0.027-0.005-0.052-0.006-0.079C152.921,86.036,152.911,85.886,152.894,85.735z
		 M129.394,147.188v-46.102c0-1.628-0.874-3.129-2.289-3.934L60.403,59.238l14.847-9.35l64.346,36.576l-5.634,3.548
		c-2.115,1.331-2.75,4.125-1.418,6.24c0.859,1.366,2.33,2.114,3.834,2.114c0.822,0,1.657-0.225,2.406-0.696l5.094-3.208v43.604
		L129.394,147.188z"/>
	<path fill="#E12A2A" d="M193.064,70.896l-33.496,21.092c-2.115,1.331-2.75,4.125-1.418,6.24c0.859,1.366,2.33,2.114,3.833,2.114
		c0.823,0,1.658-0.225,2.406-0.696l33.496-21.092c2.114-1.331,2.749-4.125,1.418-6.24S195.178,69.564,193.064,70.896z"/>
	<path fill="#E12A2A" d="M108.883,123.904l-31.204,19.648L6.762,103.242c-2.171-1.234-4.935-0.477-6.17,1.697
		c-1.235,2.173-0.475,4.936,1.698,6.17l73.273,41.65c0.694,0.395,1.465,0.591,2.236,0.591c0.838,0,1.675-0.233,2.411-0.696
		l33.496-21.092c2.114-1.331,2.75-4.125,1.418-6.24C113.792,123.207,110.998,122.572,108.883,123.904z"/>
	<path fill="#E12A2A" d="M193.064,88.995l-33.496,21.092c-2.115,1.331-2.75,4.126-1.418,6.239c0.859,1.367,2.33,2.115,3.833,2.115
		c0.823,0,1.658-0.225,2.406-0.696l33.496-21.092c2.114-1.332,2.749-4.125,1.418-6.24C197.973,88.298,195.178,87.663,193.064,88.995
		z"/>
	<path fill="#E12A2A" d="M108.883,142.004l-31.204,19.648L6.762,121.342c-2.171-1.234-4.935-0.477-6.17,1.697
		c-1.235,2.173-0.475,4.936,1.698,6.17l73.273,41.649c0.694,0.396,1.465,0.592,2.236,0.592c0.838,0,1.675-0.233,2.411-0.696
		l33.496-21.092c2.114-1.332,2.75-4.125,1.418-6.24C113.792,141.307,110.998,140.672,108.883,142.004z"/>
	<path fill="#E12A2A" d="M193.064,107.095l-33.496,21.092c-2.115,1.331-2.75,4.125-1.418,6.239c0.859,1.367,2.33,2.115,3.833,2.115
		c0.823,0,1.658-0.225,2.406-0.697l33.496-21.092c2.114-1.33,2.749-4.125,1.418-6.239S195.178,105.764,193.064,107.095z"/>
	<path fill="#E12A2A" d="M108.883,160.104l-31.204,19.648L6.762,139.441c-2.171-1.234-4.935-0.477-6.17,1.697
		c-1.235,2.172-0.475,4.936,1.698,6.17l73.273,41.649c0.694,0.396,1.465,0.591,2.236,0.591c0.838,0,1.675-0.232,2.411-0.695
		l33.496-21.092c2.114-1.332,2.75-4.126,1.418-6.24C113.792,159.406,110.998,158.771,108.883,160.104z"/>
</g>
</svg>
