<?xml version="1.0" encoding="utf-8"?>
<!-- Generator: Adobe Illustrator 16.0.0, SVG Export Plug-In . SVG Version: 6.00 Build 0)  -->
<!DOCTYPE svg PUBLIC "-//W3C//DTD SVG 1.1//EN" "http://www.w3.org/Graphics/SVG/1.1/DTD/svg11.dtd">
<svg version="1.1" id="Layer_1" xmlns="http://www.w3.org/2000/svg" xmlns:xlink="http://www.w3.org/1999/xlink" x="0px" y="0px"
	 width="200px" height="200px" viewBox="0 0 200 200" enable-background="new 0 0 200 200" xml:space="preserve">
<g>
	<g>
		<g>
			<path fill="#E12A2A" d="M194.691,68.635L131.36,5.306c-3.419-3.418-7.978-5.301-12.838-5.301c-4.859,0-9.419,1.882-12.838,5.3
				L5.301,105.688C1.883,109.107,0,113.666,0,118.526s1.883,9.419,5.301,12.837l7.809,7.81c0.001,0.001,0.001,0.001,0.002,0.002
				c0.001,0.001,0.002,0.002,0.002,0.003l52.484,52.484h-7.267c-2.301,0-4.167,1.865-4.167,4.166s1.866,4.166,4.167,4.166h23.121
				c0.005,0,0.011,0.001,0.016,0.001s0.011-0.001,0.016-0.001l60.177,0.001c2.301,0,4.166-1.865,4.166-4.166
				c0-2.302-1.865-4.167-4.166-4.167H97.34l97.352-97.352C201.77,87.231,201.77,75.713,194.691,68.635z M188.799,88.418
				L88.415,188.803c-1.841,1.84-4.302,2.855-6.931,2.859h-0.032c-2.627-0.005-5.088-1.02-6.928-2.859l-52.573-52.574l96.404-96.405
				c1.627-1.627,1.627-4.265,0-5.892s-4.265-1.627-5.893,0l-96.404,96.405l-4.866-4.865c-1.844-1.845-2.86-4.311-2.86-6.945
				c0-2.634,1.016-5.101,2.86-6.945L111.577,11.197c1.845-1.844,4.312-2.86,6.945-2.86c2.635,0,5.102,1.016,6.946,2.86l22.54,22.54
				l-96.406,96.406c-1.627,1.627-1.627,4.265,0,5.893c0.814,0.813,1.88,1.22,2.946,1.22s2.132-0.406,2.946-1.22L153.9,39.63
				l34.898,34.897C192.628,78.356,192.628,84.588,188.799,88.418z"/>
			<path fill="#E12A2A" d="M102.656,120.338c-1.627-1.627-4.264-1.627-5.892,0l-32.787,32.786c-1.627,1.627-1.627,4.265,0,5.893
				c0.813,0.813,1.88,1.22,2.946,1.22s2.132-0.406,2.946-1.22l32.787-32.786C104.283,124.603,104.283,121.965,102.656,120.338z"/>
			<path fill="#E12A2A" d="M89.209,151.461l-13.447,13.447c-1.627,1.627-1.627,4.266,0,5.893c0.813,0.813,1.88,1.221,2.946,1.221
				s2.132-0.407,2.946-1.221l13.447-13.447c1.627-1.627,1.627-4.265,0-5.893C93.474,149.834,90.837,149.834,89.209,151.461z"/>
			<path fill="#E12A2A" d="M101.584,139.088l-1.768,1.768c-1.627,1.627-1.627,4.265,0,5.893c0.813,0.813,1.88,1.221,2.946,1.221
				s2.133-0.407,2.945-1.221l1.768-1.768c1.628-1.627,1.628-4.265,0.001-5.893C105.85,137.461,103.211,137.461,101.584,139.088z"/>
			<path fill="#E12A2A" d="M159.013,63.981c-0.781-0.781-1.841-1.22-2.946-1.22c-1.104,0-2.164,0.439-2.945,1.22l-17.678,17.678
				c-0.781,0.781-1.221,1.841-1.221,2.946s0.439,2.165,1.221,2.946l11.785,11.784c0.813,0.814,1.88,1.221,2.945,1.221
				c1.067,0,2.133-0.407,2.946-1.221l17.677-17.676c1.627-1.627,1.627-4.265,0-5.892L159.013,63.981z M150.174,90.497l-5.893-5.892
				l11.785-11.785l5.893,5.893L150.174,90.497z"/>
			<path fill="#E12A2A" d="M125.133,31.323c1.066,0,2.133-0.407,2.946-1.221l1.768-1.769c1.626-1.627,1.626-4.266-0.001-5.892
				s-4.266-1.626-5.893,0.001l-1.768,1.768c-1.627,1.627-1.626,4.266,0.001,5.892C123,30.917,124.066,31.323,125.133,31.323z"/>
			<path fill="#E12A2A" d="M41.881,139.866l-1.768,1.768c-1.627,1.626-1.627,4.265,0,5.893c0.813,0.813,1.88,1.22,2.946,1.22
				c1.066,0,2.132-0.406,2.946-1.22l1.768-1.768c1.627-1.628,1.627-4.266,0-5.893C46.146,138.238,43.508,138.238,41.881,139.866z"/>
		</g>
	</g>
</g>
</svg>
