<?xml version="1.0" encoding="utf-8"?>
<!-- Generator: Adobe Illustrator 16.0.0, SVG Export Plug-In . SVG Version: 6.00 Build 0)  -->
<!DOCTYPE svg PUBLIC "-//W3C//DTD SVG 1.1//EN" "http://www.w3.org/Graphics/SVG/1.1/DTD/svg11.dtd">
<svg version="1.1" id="Capa_1" xmlns="http://www.w3.org/2000/svg" xmlns:xlink="http://www.w3.org/1999/xlink" x="0px" y="0px"
	 width="200px" height="200px" viewBox="0 0 200 200" enable-background="new 0 0 200 200" xml:space="preserve">
<g>
	<path fill="#8D8D8D" d="M39.4,31.379c0,4.527-3.479,8.194-7.775,8.194H14.778c-4.309-0.005-7.787-3.66-7.787-8.194l0,0
		c0-4.521,3.479-8.187,7.787-8.187h16.841C35.917,23.192,39.4,26.859,39.4,31.379L39.4,31.379z M39.4,77.129
		c0-4.521-3.479-8.2-7.775-8.2H14.778c-4.309,0-7.787,3.667-7.787,8.2l0,0c0,4.521,3.479,8.194,7.787,8.194h16.841
		C35.917,85.311,39.4,81.65,39.4,77.129L39.4,77.129z M39.4,122.859c0-4.521-3.479-8.194-7.775-8.194H14.778
		c-4.309,0.006-7.787,3.66-7.787,8.194l0,0c0,4.521,3.479,8.199,7.787,8.199h16.841C35.917,131.059,39.4,127.393,39.4,122.859
		L39.4,122.859z M39.4,168.596c0-4.514-3.479-8.182-7.775-8.182H14.778c-4.309,0.006-7.787,3.66-7.787,8.182l0,0
		c0,4.533,3.479,8.199,7.787,8.199h16.841C35.917,176.795,39.4,173.129,39.4,168.596L39.4,168.596z M193.01,8.95v182.104
		c0,4.932-4,8.944-8.939,8.944H32.297c-4.945,0-8.95-4-8.95-8.944v-7.801h8.266c7.678,0,13.927-6.568,13.927-14.641
		c0-8.066-6.249-14.636-13.927-14.636h-8.266v-16.472h8.266c7.678,0,13.927-6.568,13.927-14.641c0-8.073-6.249-14.63-13.927-14.63
		h-8.266V91.771h8.266c7.678,0,13.927-6.569,13.927-14.642c0-8.073-6.249-14.642-13.927-14.642h-8.266V46.021h8.266
		c7.678,0,13.927-6.569,13.927-14.642S39.292,16.75,31.613,16.75h-8.266v-7.8c0-4.945,4-8.95,8.95-8.95h151.779
		C189.01,0,193.01,4,193.01,8.95z M91.585,75.959c0.212-2.654,1.909-5.521,4.085-5.224c2.448,0.345,8.497,4.806,10.678,5.951
		c5.938,3.048,15.509-20.575,11.066-23.356c-3.479-2.152-6.594-5.079-10.381-6.649c-0.636-0.26-1.339-0.26-2.024-0.405
		c-15.484-3.466-31.283,9.896-32.895,30.004c-0.631,7.685-0.981,15.38-1.133,23.083h-0.037c0.012,0.212,0.024,0.412,0.024,0.631
		c0,0.218-0.012,0.4-0.024,0.63h0.037c0.134,7.703,0.497,15.399,1.133,23.083c1.612,20.096,17.411,33.458,32.895,29.992
		c0.686-0.134,1.389-0.14,2.024-0.395c3.787-1.569,6.902-4.49,10.381-6.653c4.436-2.775-5.126-26.387-11.066-23.356
		c-2.176,1.146-8.224,5.624-10.678,5.963c-2.164,0.298-3.873-2.581-4.085-5.229c-0.569-7.006-0.06-15.969-0.012-23.398h0.012
		c0-0.212,0-0.418,0-0.631c0-0.212,0-0.424,0-0.631h-0.012C91.524,91.928,91.016,82.971,91.585,75.959z M130.11,120.139
		c11.114-11.115,11.114-29.175,0-40.289l-5.909,5.921c7.86,7.849,7.86,20.617,0,28.452L130.11,120.139z M140.66,130.665
		c16.902-16.902,16.902-44.421-0.012-61.336l-5.908,5.909c13.66,13.66,13.66,35.876,0,49.53L140.66,130.665z M150.86,59.13
		l-5.909,5.903c19.271,19.278,19.271,50.652,0,69.928l5.909,5.909C173.387,118.326,173.387,81.661,150.86,59.13z"/>
</g>
</svg>
