<?xml version="1.0" encoding="utf-8"?>
<!-- Generator: Adobe Illustrator 16.0.0, SVG Export Plug-In . SVG Version: 6.00 Build 0)  -->
<!DOCTYPE svg PUBLIC "-//W3C//DTD SVG 1.1//EN" "http://www.w3.org/Graphics/SVG/1.1/DTD/svg11.dtd">
<svg version="1.1" id="Layer_1" xmlns="http://www.w3.org/2000/svg" xmlns:xlink="http://www.w3.org/1999/xlink" x="0px" y="0px"
	 width="200px" height="200px" viewBox="0 0 200 200" enable-background="new 0 0 200 200" xml:space="preserve">
<g>
	<g>
		<path fill="#292929" d="M185.999,90.376l-5.179-20.717c1.416-0.301,2.479-1.557,2.479-3.062v-3.34
			c0-7.252-5.9-13.152-13.152-13.152h-23.591v-6.89c0-3.569-2.903-6.472-6.472-6.472H19.833c-3.569,0-6.472,2.903-6.472,6.472V100
			c0,1.729,1.402,3.132,3.132,3.132c1.729,0,3.131-1.402,3.131-3.132V43.215c0-0.115,0.094-0.208,0.209-0.208h120.25
			c0.115,0,0.209,0.093,0.209,0.208v56.786c0,1.729,1.401,3.132,3.132,3.132c1.729,0,3.131-1.402,3.131-3.132v-3.55h36.941
			c0.003,0,0.006,0.001,0.008,0.001c0.004,0,0.006,0,0.009,0c4.546,0.003,8.405,2.987,9.731,7.098h-9.737
			c-1.729,0-3.132,1.402-3.132,3.132v6.681c0,5.41,4.401,9.813,9.813,9.813h3.549v13.778h-8.188
			c-2.689-7.767-10.073-13.361-18.743-13.361s-16.053,5.595-18.742,13.361h-1.508v-23.591c0-1.729-1.402-3.132-3.132-3.132
			s-3.132,1.401-3.132,3.132v23.59H75.319c-2.69-7.767-10.073-13.361-18.743-13.361s-16.054,5.595-18.743,13.361h-18
			c-0.115,0-0.209-0.094-0.209-0.209v-6.889h13.57c1.729,0,3.131-1.402,3.131-3.132s-1.402-3.132-3.131-3.132H3.132
			c-1.729,0-3.132,1.402-3.132,3.132s1.402,3.132,3.132,3.132h10.229v6.889c0,3.569,2.903,6.473,6.472,6.473h16.916
			c-0.001,0.069-0.006,0.139-0.006,0.208c0,10.937,8.897,19.833,19.833,19.833s19.833-8.896,19.833-19.833
			c0-0.07-0.005-0.139-0.006-0.208h70.574c-0.001,0.069-0.005,0.139-0.005,0.208c0,10.937,8.896,19.833,19.832,19.833
			s19.833-8.896,19.833-19.833c0-0.07-0.005-0.139-0.005-0.208h10.235c1.729,0,3.132-1.402,3.132-3.132V106.68
			C200,98.433,193.915,91.581,185.999,90.376z M146.556,56.368h23.591c3.799,0,6.889,3.09,6.889,6.889v0.209h-30.479V56.368z
			 M146.556,90.188V69.729h27.826l5.114,20.459H146.556z M56.576,156.994c-7.482,0-13.57-6.088-13.57-13.57s6.087-13.57,13.57-13.57
			s13.57,6.088,13.57,13.57S64.059,156.994,56.576,156.994z M166.806,156.994c-7.482,0-13.569-6.088-13.569-13.57
			s6.087-13.57,13.569-13.57s13.57,6.088,13.57,13.57S174.288,156.994,166.806,156.994z M193.737,116.91h-3.55
			c-1.957,0-3.549-1.592-3.549-3.549v-3.55h7.098L193.737,116.91L193.737,116.91z"/>
	</g>
</g>
<g>
	<g>
		<path fill="#292929" d="M56.576,136.952c-3.569,0-6.472,2.903-6.472,6.472s2.903,6.472,6.472,6.472s6.472-2.903,6.472-6.472
			S60.145,136.952,56.576,136.952z"/>
	</g>
</g>
<g>
	<g>
		<path fill="#292929" d="M166.806,136.952c-3.568,0-6.472,2.903-6.472,6.472s2.903,6.472,6.472,6.472
			c3.569,0,6.472-2.903,6.472-6.472S170.375,136.952,166.806,136.952z"/>
	</g>
</g>
<g>
	<g>
		<path fill="#292929" d="M130.063,123.591H83.298c-1.729,0-3.131,1.402-3.131,3.132s1.402,3.132,3.131,3.132h46.764
			c1.729,0,3.132-1.402,3.132-3.132S131.792,123.591,130.063,123.591z"/>
	</g>
</g>
<g>
	<g>
		<path fill="#292929" d="M49.896,110.229H9.812c-1.729,0-3.131,1.402-3.131,3.132s1.402,3.132,3.131,3.132h40.083
			c1.729,0,3.132-1.402,3.132-3.132S51.625,110.229,49.896,110.229z"/>
	</g>
</g>
<g>
	<g>
		<path fill="#292929" d="M108.895,67.723c-1.223-1.223-3.205-1.223-4.428,0L76.618,95.571L62.131,81.084
			c-1.223-1.223-3.206-1.223-4.429,0s-1.223,3.206,0,4.429l16.702,16.701c0.611,0.612,1.413,0.917,2.214,0.917
			c0.801,0,1.603-0.305,2.214-0.917l30.063-30.063C110.117,70.928,110.117,68.946,108.895,67.723z"/>
	</g>
</g>
</svg>
