<?xml version="1.0" encoding="utf-8"?>
<!-- Generator: Adobe Illustrator 16.0.0, SVG Export Plug-In . SVG Version: 6.00 Build 0)  -->
<!DOCTYPE svg PUBLIC "-//W3C//DTD SVG 1.1//EN" "http://www.w3.org/Graphics/SVG/1.1/DTD/svg11.dtd">
<svg version="1.1" id="Capa_1" xmlns="http://www.w3.org/2000/svg" xmlns:xlink="http://www.w3.org/1999/xlink" x="0px" y="0px"
	 width="200px" height="200px" viewBox="0 0 200 200" enable-background="new 0 0 200 200" xml:space="preserve">
<g>
	<g>
		<path fill="#D73535" d="M181.029,71.979L54.113,60.143c-0.696-0.082-1.351-0.082-2.006-0.041L47.028,35.53
			c-0.123-0.491-0.246-0.983-0.45-1.392c-0.778-1.966-2.417-3.563-4.587-4.218l-24.204-7.126c-3.727-1.106-7.659,1.024-8.764,4.792
			c-1.106,3.727,1.024,7.658,4.792,8.764l20.19,5.938l24.286,117.046c0.45,3.439,3.399,6.104,7.003,6.104l104.433-0.041
			c3.892,0,7.043-3.154,7.043-7.045c0-3.892-3.151-7.045-7.043-7.045l-98.658,0.041L67.71,135.17h103.858
			c5.447,0,10.156-3.604,11.141-8.559l8.395-42.306C192.21,78.244,187.623,72.593,181.029,71.979z"/>
		<circle fill="#D73535" cx="85.361" cy="185.912" r="14.088"/>
		<circle fill="#D73535" cx="152.689" cy="185.912" r="14.088"/>
		<path fill="#D73535" d="M79.874,55.31l20.559,1.925l0.738-7.904c1.022-10.689,10.483-18.511,21.173-17.528
			c10.688,1.024,18.512,10.484,17.528,21.173l-0.737,7.904l20.559,1.925l1.333,0.125c2.416,0.246,3.769,0.268,3.974-2.149
			l0.656-8.031c0.246-2.416,0.768-5.283-1.648-5.488l-2.84-0.266c-0.531-5.447-2.171-10.607-4.71-15.235l2.293-1.904
			c1.885-1.556,2.098-3.321,0.541-5.205l-5.948-6.464c-1.557-1.884-3.122-1.963-5.007-0.407l-2.077,1.695
			c-4.096-3.317-8.846-5.897-14.088-7.454l0.356-3.809c0.246-2.416-1.592-2.732-4.008-2.938l-7.313-0.813
			c-2.416-0.246-4.293,0.104-4.498,2.521l-0.347,3.564c-5.447,0.532-10.607,2.17-15.234,4.709l-2.002-2.353
			c-1.556-1.884-3.149-1.928-5.033-0.372l-6.719,5.813c-1.884,1.556-2.097,2.718-0.541,4.602l2.049,2.467
			c-3.317,4.095-5.897,8.846-7.454,14.088l-1.307-0.123c-2.416-0.246-3.396,1.39-3.602,3.807l-0.771,8.182
			c-0.367,2.416-0.125,3.442,2.292,3.688"/>
	</g>
</g>
</svg>
