<?xml version="1.0" encoding="utf-8"?>
<!-- Generator: Adobe Illustrator 16.0.0, SVG Export Plug-In . SVG Version: 6.00 Build 0)  -->
<!DOCTYPE svg PUBLIC "-//W3C//DTD SVG 1.1//EN" "http://www.w3.org/Graphics/SVG/1.1/DTD/svg11.dtd">
<svg version="1.1" id="Layer_1" xmlns="http://www.w3.org/2000/svg" xmlns:xlink="http://www.w3.org/1999/xlink" x="0px" y="0px"
	 width="512px" height="512px" viewBox="0 0 512 512" enable-background="new 0 0 512 512" xml:space="preserve">
<path fill="#FFFFFF" d="M469.176,310.305l-61.66,16.523l-45.348-26.18v-89.297l45.348-26.18l61.66,16.523
	c8.164,2.195,16.555-2.652,18.75-10.816c2.184-8.168-2.664-16.566-10.828-18.75l-32.09-8.602l25.313-14.617
	c7.316-4.223,9.828-13.582,5.602-20.91c-4.223-7.316-13.594-9.828-20.91-5.602l-25.313,14.613l8.594-32.086
	c2.195-8.164-2.652-16.566-10.816-18.75c-8.176-2.191-16.563,2.656-18.75,10.82l-16.52,61.66l-45.344,26.18l-77.332-44.648V87.84
	l45.141-45.141c5.98-5.98,5.98-15.676,0-21.656c-5.98-5.969-15.664-5.969-21.645,0l-23.496,23.496v-29.23
	C269.531,6.859,262.676,0,254.223,0c-8.449,0-15.309,6.859-15.309,15.309v29.23l-23.492-23.496c-5.98-5.969-15.664-5.969-21.645,0
	c-5.98,5.98-5.98,15.676,0,21.656l45.137,45.141v52.348l-77.328,44.648l-45.344-26.18l-16.523-61.66
	c-2.184-8.164-10.57-13.012-18.746-10.82c-8.164,2.184-13.012,10.586-10.82,18.75l8.594,32.086l-25.309-14.613
	c-7.316-4.227-16.688-1.715-20.91,5.602c-4.227,7.328-1.715,16.688,5.602,20.91l25.309,14.617l-32.086,8.602
	c-8.164,2.184-13.012,10.582-10.828,18.75c2.195,8.164,10.582,13.012,18.75,10.816l61.66-16.523l45.344,26.18v89.297l-45.344,26.18
	l-61.66-16.523c-8.168-2.195-16.566,2.652-18.75,10.816c-2.184,8.168,2.664,16.566,10.828,18.75l32.086,8.602L38.129,363.09
	c-7.316,4.223-9.828,13.582-5.602,20.91c4.223,7.316,13.594,9.828,20.91,5.602l25.309-14.613l-8.594,32.086
	c-2.191,8.164,2.656,16.566,10.82,18.75c8.164,2.191,16.563-2.656,18.746-10.82l16.523-61.66l45.344-26.18l77.328,44.648v52.348
	l-45.137,45.141c-5.98,5.98-5.98,15.676,0,21.656c5.98,5.969,15.664,5.969,21.645,0l23.492-23.496v29.23
	c0,8.449,6.859,15.309,15.309,15.309c8.453,0,15.309-6.859,15.309-15.309v-29.23l23.496,23.496c5.98,5.969,15.664,5.969,21.645,0
	c5.98-5.98,5.98-15.676,0-21.656l-45.141-45.141v-52.348l77.332-44.648l45.344,26.18l16.52,61.66
	c2.188,8.164,10.586,13.012,18.75,10.82c8.164-2.184,13.012-10.586,10.816-18.75l-8.594-32.086l25.313,14.613
	c7.316,4.227,16.688,1.715,20.91-5.602c4.227-7.328,1.715-16.688-5.602-20.91l-25.313-14.617l32.09-8.602
	c8.164-2.184,13.012-10.582,10.828-18.75C485.73,312.957,477.34,308.109,469.176,310.305z M176.895,229.027L223.605,256
	l-46.711,26.973V229.027z M238.914,336.461l-46.711-26.973l46.711-26.973V336.461z M238.914,229.484l-46.711-26.973l46.711-26.973
	V229.484z M269.531,175.539l46.715,26.973l-46.715,26.973V175.539z M269.531,336.461v-53.945l46.715,26.973L269.531,336.461z
	 M331.555,282.973L284.84,256l46.715-26.973V282.973z"/>
<path fill="#FFFFFF" d="M355.91,112.207c0,10.07-8.164,18.234-18.234,18.234c-10.074,0-18.234-8.164-18.234-18.234
	s8.16-18.234,18.234-18.234C347.746,93.973,355.91,102.137,355.91,112.207z"/>
<path fill="#FFFFFF" d="M115.809,256c0,10.07-8.164,18.234-18.234,18.234S79.34,266.07,79.34,256s8.164-18.234,18.234-18.234
	S115.809,245.93,115.809,256z"/>
<path fill="#FFFFFF" d="M429.109,256c0,10.07-8.164,18.234-18.234,18.234S392.641,266.07,392.641,256s8.164-18.234,18.234-18.234
	S429.109,245.93,429.109,256z"/>
<path fill="#FFFFFF" d="M191.797,112.207c0,10.07-8.164,18.234-18.234,18.234s-18.234-8.164-18.234-18.234
	s8.164-18.234,18.234-18.234S191.797,102.137,191.797,112.207z"/>
<path fill="#FFFFFF" d="M354.516,399.793c0,10.07-8.164,18.234-18.234,18.234s-18.234-8.164-18.234-18.234
	s8.164-18.234,18.234-18.234S354.516,389.723,354.516,399.793z"/>
<path fill="#FFFFFF" d="M190.402,399.793c0,10.07-8.164,18.234-18.234,18.234s-18.234-8.164-18.234-18.234
	s8.164-18.234,18.234-18.234S190.402,389.723,190.402,399.793z"/>
<path fill="#FFFFFF" d="M469.176,310.305l-61.66,16.523l-45.348-26.18v-89.297l45.348-26.18l61.66,16.523
	c8.164,2.195,16.555-2.652,18.75-10.816c2.184-8.168-2.664-16.566-10.828-18.75l-32.09-8.602l25.313-14.617
	c7.316-4.223,9.828-13.582,5.602-20.91c-4.223-7.316-13.594-9.828-20.91-5.602l-25.313,14.613l8.594-32.086
	c2.195-8.164-2.652-16.566-10.816-18.75c-8.176-2.191-16.563,2.656-18.75,10.82l-16.52,61.66l-45.344,26.18l-77.332-44.648V87.84
	l45.141-45.141c5.98-5.98,5.98-15.676,0-21.656c-5.98-5.969-15.664-5.969-21.645,0l-23.496,23.496v-29.23
	C269.531,6.859,262.676,0,254.223,0v512c8.453,0,15.309-6.859,15.309-15.309v-29.23l23.496,23.496c5.98,5.969,15.664,5.969,21.645,0
	c5.98-5.98,5.98-15.676,0-21.656l-45.141-45.141v-52.348l77.332-44.648l45.344,26.18l16.52,61.66
	c2.188,8.164,10.586,13.012,18.75,10.82c8.164-2.184,13.012-10.586,10.816-18.75l-8.594-32.086l25.313,14.613
	c7.316,4.227,16.688,1.715,20.91-5.602c4.227-7.328,1.715-16.688-5.602-20.91l-25.313-14.617l32.09-8.602
	c8.164-2.184,13.012-10.582,10.828-18.75C485.73,312.957,477.34,308.109,469.176,310.305z M269.531,175.539l46.715,26.973
	l-46.715,26.973V175.539z M269.531,336.461v-53.945l46.715,26.973L269.531,336.461z M331.555,282.973L284.84,256l46.715-26.973
	V282.973z"/>
</svg>
