<?xml version="1.0" encoding="utf-8"?>
<!-- Generator: Adobe Illustrator 16.0.0, SVG Export Plug-In . SVG Version: 6.00 Build 0)  -->
<!DOCTYPE svg PUBLIC "-//W3C//DTD SVG 1.1//EN" "http://www.w3.org/Graphics/SVG/1.1/DTD/svg11.dtd">
<svg version="1.1" id="Layer_1" xmlns="http://www.w3.org/2000/svg" xmlns:xlink="http://www.w3.org/1999/xlink" x="0px" y="0px"
	 width="200px" height="200px" viewBox="0 0 200 200" enable-background="new 0 0 200 200" xml:space="preserve">
<g>
	<polygon fill="#FFFFFF" points="200,100 178.939,118.027 190.113,143.402 163.298,150.47 162.355,178.183 135.125,172.957 
		122.25,197.514 100,180.952 77.75,197.514 64.875,172.957 37.645,178.183 36.702,150.47 9.887,143.402 21.06,118.027 0,100 
		21.06,81.973 9.887,56.598 36.702,49.53 37.645,21.817 64.875,27.042 77.75,2.486 100,19.048 122.249,2.486 135.125,27.042 
		162.355,21.817 163.299,49.53 190.113,56.598 178.939,81.972 	"/>
	<circle fill="#FFFFFF" stroke="#C63434" stroke-width="6" stroke-miterlimit="10" cx="100" cy="100" r="55.379"/>
</g>
</svg>
