<?xml version="1.0" encoding="utf-8"?>
<!-- Generator: Adobe Illustrator 16.0.0, SVG Export Plug-In . SVG Version: 6.00 Build 0)  -->
<!DOCTYPE svg PUBLIC "-//W3C//DTD SVG 1.1//EN" "http://www.w3.org/Graphics/SVG/1.1/DTD/svg11.dtd">
<svg version="1.1" id="Layer_1" xmlns="http://www.w3.org/2000/svg" xmlns:xlink="http://www.w3.org/1999/xlink" x="0px" y="0px"
	 width="512px" height="512px" viewBox="0 0 512 512" enable-background="new 0 0 512 512" xml:space="preserve">
<path fill="#FFFFFF" d="M480.27,245.223c-7.266-4.426-9.566-13.902-5.141-21.164s13.902-9.566,21.164-5.141l14.285,8.703
	c-3.656-33.02-13.609-64.168-28.641-92.215l-37.105-0.875c-8.504-0.199-15.23-7.254-15.031-15.758s7.238-15.238,15.758-15.035
	l16.59,0.391c-19.234-26.039-43.277-48.316-70.809-65.516l-32.539,17.777c-2.344,1.281-4.875,1.887-7.371,1.887
	c-5.449,0-10.73-2.898-13.531-8.02c-4.078-7.465-1.332-16.82,6.133-20.898l14.656-8.008C329.703,8.618,297.93,1.102,264.555,0
	l-19.332,31.734c-2.902,4.758-7.973,7.387-13.168,7.387c-2.73,0-5.496-0.727-7.996-2.25c-7.266-4.426-9.566-13.902-5.141-21.164
	l8.703-14.285c-33.023,3.656-64.168,13.609-92.215,28.641l-0.875,37.105c-0.195,8.379-7.051,15.035-15.391,15.035
	c-0.121,0-0.246,0-0.371-0.004c-8.5-0.199-15.23-7.254-15.031-15.758l0.391-16.59c-26.039,19.234-48.316,43.277-65.52,70.809
	L56.387,153.2c4.078,7.465,1.332,16.82-6.133,20.898c-2.344,1.281-4.875,1.891-7.367,1.891c-5.453,0-10.734-2.902-13.531-8.023
	l-8.004-14.656C8.617,182.297,1.102,214.075,0,247.446l31.73,19.332c7.266,4.426,9.566,13.902,5.141,21.164
	c-2.898,4.762-7.969,7.391-13.164,7.391c-2.734,0-5.496-0.727-8-2.25l-14.285-8.703c3.656,33.023,13.609,64.172,28.641,92.215
	l37.105,0.875c8.504,0.199,15.23,7.254,15.031,15.758c-0.195,8.379-7.051,15.039-15.391,15.039c-0.121,0-0.242,0-0.367-0.004
	l-16.59-0.391c19.234,26.04,43.277,48.317,70.809,65.517l32.539-17.777c7.465-4.074,16.82-1.332,20.898,6.133
	s1.332,16.82-6.129,20.898l-14.656,8.008c28.984,12.734,60.758,20.25,94.133,21.352l19.332-31.73
	c4.426-7.266,13.902-9.566,21.164-5.141c7.266,4.426,9.566,13.902,5.141,21.164l-8.703,14.285
	c33.023-3.656,64.168-13.609,92.211-28.637l0.879-37.109c0.199-8.5,7.227-15.207,15.758-15.031
	c8.504,0.199,15.234,7.254,15.035,15.758l-0.391,16.59c26.039-19.234,48.316-43.278,65.52-70.81l-17.777-32.539
	c-4.078-7.465-1.336-16.82,6.129-20.898c7.461-4.078,16.824-1.336,20.902,6.133l8.004,14.656
	c12.734-28.988,20.25-60.762,21.352-94.137L480.27,245.223z M256,442.087c-102.609,0-186.086-83.478-186.086-186.086
	c0-102.609,83.477-186.086,186.086-186.086S442.086,153.391,442.086,256C442.086,358.609,358.609,442.087,256,442.087z"/>
<path fill="#FFFFFF" d="M256,100.715c-85.625,0-155.285,69.66-155.285,155.285c0,85.625,69.66,155.285,155.285,155.285
	S411.285,341.625,411.285,256C411.285,170.375,341.625,100.715,256,100.715z M255.996,349.469c-51.539,0-93.469-41.93-93.469-93.468
	c0-51.539,41.93-93.469,93.469-93.469s93.469,41.93,93.469,93.469C349.465,307.539,307.535,349.469,255.996,349.469z"/>
</svg>
